<svg height="512pt" viewBox="-61 0 512 512" width="512pt" xmlns="http://www.w3.org/2000/svg"><path d="m390.070312 512h-390.070312v-375.8125l136.25-136.1875h253.820312zm0 0" fill="#e9edf5"/><path d="m196.152344 0h193.917968v512h-193.917968zm0 0" fill="#becbd4"/><path d="m0 136.1875h136.453125l-.203125-136.1875zm0 0" fill="#becbd4"/><g fill="#ff0059"><path d="m108.046875 222.292969h-40.578125v84.289062h28.414062v-20.710937h12.164063c23.480469 0 38.410156-12.28125 38.410156-31.789063 0-19.507812-14.929687-31.789062-38.410156-31.789062zm-1.804687 41.660156h-10.355469v-19.746094h10.355469c7.824218 0 11.558593 3.734375 11.558593 9.875s-3.734375 9.871094-11.558593 9.871094zm0 0"/><path d="m156.929688 222.292969v84.289062h41.542968c28.175782 0 47.558594-16.015625 47.558594-42.144531s-19.382812-42.144531-47.558594-42.144531zm60.445312 42.144531c0 12.882812-8.1875 19.988281-20.109375 19.988281h-11.917969v-39.976562h11.917969c11.921875 0 20.109375 7.105469 20.109375 19.988281zm0 0"/><path d="m286.003906 279.609375h35.160156v-21.433594h-35.160156v-14.449219h40.097656v-21.433593h-68.515624v84.289062h28.417968zm0 0"/></g><path d="m198.472656 222.292969h-2.320312v22.15625h1.113281c11.921875 0 20.109375 7.105469 20.109375 19.988281s-8.1875 19.988281-20.109375 19.988281h-1.113281v22.15625h2.320312c28.175782 0 47.558594-16.015625 47.558594-42.144531s-19.382812-42.144531-47.558594-42.144531zm0 0" fill="#d20041"/><path d="m286.003906 279.609375h35.160156v-21.433594h-35.160156v-14.449219h40.097656v-21.433593h-68.515624v84.289062h28.417968zm0 0" fill="#d20041"/></svg>