<svg height="512pt" viewBox="-61 0 512 512" width="512pt" xmlns="http://www.w3.org/2000/svg"><path d="m125.964844 10.265625-115.691406 115.699219h115.691406zm0 0"/><path d="m217.34375 264.472656c0-12.878906-8.1875-19.984375-20.105469-19.984375h-11.917969v39.972657h11.917969c11.917969 0 20.105469-7.105469 20.105469-19.988282zm0 0"/><path d="m106.226562 244.246094h-10.355468v19.746094h10.355468c7.824219 0 11.554688-3.730469 11.554688-9.871094s-3.730469-9.875-11.554688-9.875zm0 0"/><path d="m0 157.4375v354.5625h390.015625v-512h-232.582031v157.4375zm108.03125 128.464844h-12.160156v20.707031h-28.414063v-84.273437h40.574219c23.476562 0 38.402344 12.28125 38.402344 31.785156.003906 19.503906-14.925782 31.78125-38.402344 31.78125zm149.519531-63.566406h68.5v21.429687h-40.089843v14.449219h35.15625v21.429687h-35.15625v26.96875h-28.410157zm-59.109375 0c28.171875 0 47.554688 16.011718 47.554688 42.136718s-19.382813 42.140625-47.554688 42.140625h-41.535156v-84.273437h41.535156zm0 0"/></svg>